<mxfile host="65bd71144e">
    <diagram id="WOcB8-TR4LJUhYoten_6" name="/nhan-vien">
        <mxGraphModel dx="1163" dy="566" grid="1" gridSize="10" guides="1" tooltips="1" connect="1" arrows="1" fold="1" page="1" pageScale="1" pageWidth="850" pageHeight="1100" math="0" shadow="0">
            <root>
                <mxCell id="0"/>
                <mxCell id="1" parent="0"/>
                <mxCell id="2" value="" style="endArrow=none;html=1;" edge="1" parent="1">
                    <mxGeometry width="50" height="50" relative="1" as="geometry">
                        <mxPoint y="80" as="sourcePoint"/>
                        <mxPoint x="840" y="80" as="targetPoint"/>
                    </mxGeometry>
                </mxCell>
                <mxCell id="3" value="LOGO" style="rounded=1;whiteSpace=wrap;html=1;" vertex="1" parent="1">
                    <mxGeometry x="80" y="20" width="60" height="40" as="geometry"/>
                </mxCell>
                <mxCell id="21" value="&lt;span style=&quot;white-space: pre&quot;&gt;&#9;&lt;/span&gt;&lt;span style=&quot;white-space: pre&quot;&gt;&#9;&lt;/span&gt;&lt;span style=&quot;white-space: pre&quot;&gt;&#9;&lt;/span&gt;&lt;span style=&quot;white-space: pre&quot;&gt;&#9;&lt;/span&gt;&lt;span style=&quot;white-space: pre&quot;&gt;&#9;&lt;/span&gt;&lt;span style=&quot;white-space: pre&quot;&gt;&#9;&lt;/span&gt;&lt;span style=&quot;white-space: pre&quot;&gt;&#9;&lt;/span&gt;&lt;span style=&quot;white-space: pre&quot;&gt;&#9;&lt;/span&gt;&lt;span style=&quot;white-space: pre&quot;&gt;&#9;&lt;/span&gt;&lt;span style=&quot;white-space: pre&quot;&gt;&#9;&lt;/span&gt;" style="strokeWidth=1;shadow=0;dashed=0;align=center;html=1;shape=mxgraph.mockup.forms.rrect;rSize=0;strokeColor=#999999;" vertex="1" parent="1">
                    <mxGeometry x="160" y="20" width="360" height="40" as="geometry"/>
                </mxCell>
                <mxCell id="23" value="Nhân viên" style="strokeColor=inherit;fillColor=inherit;gradientColor=inherit;strokeWidth=1;shadow=0;dashed=0;align=center;html=1;shape=mxgraph.mockup.forms.rrect;rSize=0;fontSize=17;fontColor=#666666;" vertex="1" parent="21">
                    <mxGeometry width="120" height="40" as="geometry"/>
                </mxCell>
                <mxCell id="30" value="Phòng ban" style="strokeColor=inherit;fillColor=inherit;gradientColor=inherit;strokeWidth=1;shadow=0;dashed=0;align=center;html=1;shape=mxgraph.mockup.forms.rrect;rSize=0;fontSize=17;fontColor=#666666;" vertex="1" parent="21">
                    <mxGeometry x="120" width="120" height="40" as="geometry"/>
                </mxCell>
                <mxCell id="31" value="Bảng lương" style="strokeColor=inherit;fillColor=inherit;gradientColor=inherit;strokeWidth=1;shadow=0;dashed=0;align=center;html=1;shape=mxgraph.mockup.forms.rrect;rSize=0;fontSize=17;fontColor=#666666;" vertex="1" parent="21">
                    <mxGeometry x="240" width="120" height="40" as="geometry"/>
                </mxCell>
                <mxCell id="32" value="" style="endArrow=none;html=1;" edge="1" parent="1">
                    <mxGeometry width="50" height="50" relative="1" as="geometry">
                        <mxPoint y="240" as="sourcePoint"/>
                        <mxPoint x="840" y="240" as="targetPoint"/>
                    </mxGeometry>
                </mxCell>
                <mxCell id="33" value="&lt;font style=&quot;font-size: 32px&quot;&gt;Ứng dụng quản lý nhân sự v1.0&lt;/font&gt;" style="text;html=1;align=center;verticalAlign=middle;resizable=0;points=[];autosize=1;strokeColor=none;fontSize=32;" vertex="1" parent="1">
                    <mxGeometry x="80" y="135" width="470" height="40" as="geometry"/>
                </mxCell>
                <mxCell id="34" value="Nhập tên tìm kiếm..." style="rounded=1;whiteSpace=wrap;html=1;gradientColor=none;" vertex="1" parent="1">
                    <mxGeometry x="520" y="250" width="160" height="30" as="geometry"/>
                </mxCell>
                <mxCell id="35" value="&lt;font style=&quot;font-size: 14px&quot;&gt;Search&lt;/font&gt;" style="strokeWidth=1;shadow=0;dashed=0;align=center;html=1;shape=mxgraph.mockup.buttons.button;strokeColor=#666666;fontColor=#ffffff;mainText=;buttonStyle=round;fontSize=17;fontStyle=1;fillColor=#008cff;whiteSpace=wrap;" vertex="1" parent="1">
                    <mxGeometry x="690" y="250" width="80" height="30" as="geometry"/>
                </mxCell>
                <mxCell id="60" value="" style="group" vertex="1" connectable="0" parent="1">
                    <mxGeometry x="80" y="290" width="140" height="30" as="geometry"/>
                </mxCell>
                <mxCell id="55" value="Layer 1" style="strokeWidth=1;shadow=0;dashed=0;align=center;html=1;shape=mxgraph.mockup.navigation.anchor;fontSize=17;fontColor=#666666;fontStyle=1;gradientColor=none;" vertex="1" parent="60">
                    <mxGeometry width="60" height="30" as="geometry"/>
                </mxCell>
                <mxCell id="56" value="&gt;" style="strokeWidth=1;shadow=0;dashed=0;align=center;html=1;shape=mxgraph.mockup.navigation.anchor;fontSize=24;fontColor=#aaaaaa;fontStyle=1;gradientColor=none;" vertex="1" parent="60">
                    <mxGeometry x="60" width="20" height="30" as="geometry"/>
                </mxCell>
                <mxCell id="57" value="Layer 2" style="strokeWidth=1;shadow=0;dashed=0;align=center;html=1;shape=mxgraph.mockup.navigation.anchor;fontSize=17;fontColor=#008cff;fontStyle=1;gradientColor=none;" vertex="1" parent="60">
                    <mxGeometry x="80" width="60" height="30" as="geometry"/>
                </mxCell>
                <mxCell id="61" value="&lt;font style=&quot;font-size: 24px&quot;&gt;Nhân Viên&lt;/font&gt;" style="text;html=1;align=center;verticalAlign=middle;resizable=0;points=[];autosize=1;strokeColor=none;" vertex="1" parent="1">
                    <mxGeometry x="80" y="340" width="130" height="20" as="geometry"/>
                </mxCell>
                <mxCell id="62" value="" style="endArrow=none;html=1;fillColor=#b0e3e6;strokeColor=#0e8088;" edge="1" parent="1">
                    <mxGeometry width="50" height="50" relative="1" as="geometry">
                        <mxPoint x="80" y="370" as="sourcePoint"/>
                        <mxPoint x="780" y="370" as="targetPoint"/>
                    </mxGeometry>
                </mxCell>
                <mxCell id="88" value="" style="group" vertex="1" connectable="0" parent="1">
                    <mxGeometry x="80" y="400" width="100" height="130" as="geometry"/>
                </mxCell>
                <mxCell id="63" value="Image" style="rounded=0;whiteSpace=wrap;html=1;gradientColor=none;" vertex="1" parent="88">
                    <mxGeometry width="100" height="100" as="geometry"/>
                </mxCell>
                <mxCell id="75" value="Nguyễn Văn A" style="text;html=1;strokeColor=none;fillColor=none;align=center;verticalAlign=middle;whiteSpace=wrap;rounded=0;" vertex="1" parent="88">
                    <mxGeometry y="110" width="100" height="20" as="geometry"/>
                </mxCell>
                <mxCell id="89" value="" style="group" vertex="1" connectable="0" parent="1">
                    <mxGeometry x="200" y="400" width="100" height="130" as="geometry"/>
                </mxCell>
                <mxCell id="64" value="Image" style="rounded=0;whiteSpace=wrap;html=1;gradientColor=none;" vertex="1" parent="89">
                    <mxGeometry width="100" height="100" as="geometry"/>
                </mxCell>
                <mxCell id="76" value="Nguyễn Văn A" style="text;html=1;strokeColor=none;fillColor=none;align=center;verticalAlign=middle;whiteSpace=wrap;rounded=0;" vertex="1" parent="89">
                    <mxGeometry y="110" width="100" height="20" as="geometry"/>
                </mxCell>
                <mxCell id="90" value="" style="group" vertex="1" connectable="0" parent="1">
                    <mxGeometry x="320" y="400" width="100" height="130" as="geometry"/>
                </mxCell>
                <mxCell id="65" value="&lt;span&gt;Image&lt;/span&gt;" style="rounded=0;whiteSpace=wrap;html=1;gradientColor=none;" vertex="1" parent="90">
                    <mxGeometry width="100" height="100" as="geometry"/>
                </mxCell>
                <mxCell id="77" value="Nguyễn Văn A" style="text;html=1;strokeColor=none;fillColor=none;align=center;verticalAlign=middle;whiteSpace=wrap;rounded=0;" vertex="1" parent="90">
                    <mxGeometry y="110" width="100" height="20" as="geometry"/>
                </mxCell>
                <mxCell id="91" value="" style="group" vertex="1" connectable="0" parent="1">
                    <mxGeometry x="440" y="400" width="100" height="130" as="geometry"/>
                </mxCell>
                <mxCell id="66" value="&lt;span&gt;Image&lt;/span&gt;" style="rounded=0;whiteSpace=wrap;html=1;gradientColor=none;" vertex="1" parent="91">
                    <mxGeometry width="100" height="100" as="geometry"/>
                </mxCell>
                <mxCell id="78" value="Nguyễn Văn A" style="text;html=1;strokeColor=none;fillColor=none;align=center;verticalAlign=middle;whiteSpace=wrap;rounded=0;" vertex="1" parent="91">
                    <mxGeometry y="110" width="100" height="20" as="geometry"/>
                </mxCell>
                <mxCell id="92" value="" style="group" vertex="1" connectable="0" parent="1">
                    <mxGeometry x="560" y="400" width="100" height="130" as="geometry"/>
                </mxCell>
                <mxCell id="67" value="&lt;span&gt;Image&lt;/span&gt;" style="rounded=0;whiteSpace=wrap;html=1;gradientColor=none;" vertex="1" parent="92">
                    <mxGeometry width="100" height="100" as="geometry"/>
                </mxCell>
                <mxCell id="79" value="Nguyễn Văn A" style="text;html=1;strokeColor=none;fillColor=none;align=center;verticalAlign=middle;whiteSpace=wrap;rounded=0;" vertex="1" parent="92">
                    <mxGeometry y="110" width="100" height="20" as="geometry"/>
                </mxCell>
                <mxCell id="93" value="" style="group" vertex="1" connectable="0" parent="1">
                    <mxGeometry x="680" y="400" width="100" height="130" as="geometry"/>
                </mxCell>
                <mxCell id="68" value="&lt;span&gt;Image&lt;/span&gt;" style="rounded=0;whiteSpace=wrap;html=1;gradientColor=none;" vertex="1" parent="93">
                    <mxGeometry width="100" height="100" as="geometry"/>
                </mxCell>
                <mxCell id="80" value="Nguyễn Văn A" style="text;html=1;strokeColor=none;fillColor=none;align=center;verticalAlign=middle;whiteSpace=wrap;rounded=0;" vertex="1" parent="93">
                    <mxGeometry y="110" width="100" height="20" as="geometry"/>
                </mxCell>
                <mxCell id="94" value="" style="group" vertex="1" connectable="0" parent="1">
                    <mxGeometry x="680" y="550" width="100" height="130" as="geometry"/>
                </mxCell>
                <mxCell id="74" value="&lt;span&gt;Image&lt;/span&gt;" style="rounded=0;whiteSpace=wrap;html=1;gradientColor=none;" vertex="1" parent="94">
                    <mxGeometry width="100" height="100" as="geometry"/>
                </mxCell>
                <mxCell id="87" value="Nguyễn Văn A" style="text;html=1;strokeColor=none;fillColor=none;align=center;verticalAlign=middle;whiteSpace=wrap;rounded=0;" vertex="1" parent="94">
                    <mxGeometry y="110" width="100" height="20" as="geometry"/>
                </mxCell>
                <mxCell id="95" value="" style="group" vertex="1" connectable="0" parent="1">
                    <mxGeometry x="560" y="550" width="100" height="130" as="geometry"/>
                </mxCell>
                <mxCell id="73" value="&lt;span&gt;Image&lt;/span&gt;" style="rounded=0;whiteSpace=wrap;html=1;gradientColor=none;" vertex="1" parent="95">
                    <mxGeometry width="100" height="100" as="geometry"/>
                </mxCell>
                <mxCell id="83" value="Nguyễn Văn A" style="text;html=1;strokeColor=none;fillColor=none;align=center;verticalAlign=middle;whiteSpace=wrap;rounded=0;" vertex="1" parent="95">
                    <mxGeometry y="110" width="100" height="20" as="geometry"/>
                </mxCell>
                <mxCell id="96" value="" style="group" vertex="1" connectable="0" parent="1">
                    <mxGeometry x="440" y="550" width="100" height="130" as="geometry"/>
                </mxCell>
                <mxCell id="72" value="&lt;span&gt;Image&lt;/span&gt;" style="rounded=0;whiteSpace=wrap;html=1;gradientColor=none;" vertex="1" parent="96">
                    <mxGeometry width="100" height="100" as="geometry"/>
                </mxCell>
                <mxCell id="85" value="Nguyễn Văn A" style="text;html=1;strokeColor=none;fillColor=none;align=center;verticalAlign=middle;whiteSpace=wrap;rounded=0;" vertex="1" parent="96">
                    <mxGeometry y="110" width="100" height="20" as="geometry"/>
                </mxCell>
                <mxCell id="97" value="" style="group" vertex="1" connectable="0" parent="1">
                    <mxGeometry x="320" y="550" width="100" height="130" as="geometry"/>
                </mxCell>
                <mxCell id="71" value="&lt;span&gt;Image&lt;/span&gt;" style="rounded=0;whiteSpace=wrap;html=1;gradientColor=none;" vertex="1" parent="97">
                    <mxGeometry width="100" height="100" as="geometry"/>
                </mxCell>
                <mxCell id="84" value="Nguyễn Văn A" style="text;html=1;strokeColor=none;fillColor=none;align=center;verticalAlign=middle;whiteSpace=wrap;rounded=0;" vertex="1" parent="97">
                    <mxGeometry y="110" width="100" height="20" as="geometry"/>
                </mxCell>
                <mxCell id="98" value="" style="group" vertex="1" connectable="0" parent="1">
                    <mxGeometry x="200" y="550" width="100" height="130" as="geometry"/>
                </mxCell>
                <mxCell id="70" value="&lt;span&gt;Image&lt;/span&gt;" style="rounded=0;whiteSpace=wrap;html=1;gradientColor=none;" vertex="1" parent="98">
                    <mxGeometry width="100" height="100" as="geometry"/>
                </mxCell>
                <mxCell id="81" value="Nguyễn Văn A" style="text;html=1;strokeColor=none;fillColor=none;align=center;verticalAlign=middle;whiteSpace=wrap;rounded=0;" vertex="1" parent="98">
                    <mxGeometry y="110" width="100" height="20" as="geometry"/>
                </mxCell>
                <mxCell id="100" value="" style="group" vertex="1" connectable="0" parent="1">
                    <mxGeometry x="80" y="550" width="100" height="130" as="geometry"/>
                </mxCell>
                <mxCell id="69" value="&lt;span&gt;Image&lt;/span&gt;" style="rounded=0;whiteSpace=wrap;html=1;gradientColor=none;" vertex="1" parent="100">
                    <mxGeometry width="100" height="100" as="geometry"/>
                </mxCell>
                <mxCell id="82" value="Nguyễn Văn A" style="text;html=1;strokeColor=none;fillColor=none;align=center;verticalAlign=middle;whiteSpace=wrap;rounded=0;" vertex="1" parent="100">
                    <mxGeometry y="110" width="100" height="20" as="geometry"/>
                </mxCell>
                <mxCell id="101" value="" style="endArrow=none;html=1;" edge="1" parent="1">
                    <mxGeometry width="50" height="50" relative="1" as="geometry">
                        <mxPoint y="720" as="sourcePoint"/>
                        <mxPoint x="840" y="720" as="targetPoint"/>
                    </mxGeometry>
                </mxCell>
                <mxCell id="103" value="GG" style="rounded=0;whiteSpace=wrap;html=1;gradientColor=none;" vertex="1" parent="1">
                    <mxGeometry x="440" y="800" width="40" height="40" as="geometry"/>
                </mxCell>
                <mxCell id="105" value="FB" style="rounded=0;whiteSpace=wrap;html=1;gradientColor=none;" vertex="1" parent="1">
                    <mxGeometry x="480" y="800" width="40" height="40" as="geometry"/>
                </mxCell>
                <mxCell id="106" value="in" style="rounded=0;whiteSpace=wrap;html=1;gradientColor=none;" vertex="1" parent="1">
                    <mxGeometry x="520" y="800" width="40" height="40" as="geometry"/>
                </mxCell>
                <mxCell id="107" value="TW" style="rounded=0;whiteSpace=wrap;html=1;gradientColor=none;" vertex="1" parent="1">
                    <mxGeometry x="560" y="800" width="40" height="40" as="geometry"/>
                </mxCell>
                <mxCell id="108" value="YTB" style="rounded=0;whiteSpace=wrap;html=1;gradientColor=none;" vertex="1" parent="1">
                    <mxGeometry x="600" y="800" width="40" height="40" as="geometry"/>
                </mxCell>
                <mxCell id="109" value="MAIL" style="rounded=0;whiteSpace=wrap;html=1;gradientColor=none;" vertex="1" parent="1">
                    <mxGeometry x="640" y="800" width="40" height="40" as="geometry"/>
                </mxCell>
                <mxCell id="110" value="Our Address" style="swimlane;fontStyle=0;childLayout=stackLayout;horizontal=1;startSize=26;horizontalStack=0;resizeParent=1;resizeParentMax=0;resizeLast=0;collapsible=1;marginBottom=0;gradientColor=none;" vertex="1" parent="1">
                    <mxGeometry x="120" y="760" width="180" height="104" as="geometry"/>
                </mxCell>
                <mxCell id="111" value="Item 1" style="text;strokeColor=none;fillColor=none;align=left;verticalAlign=top;spacingLeft=4;spacingRight=4;overflow=hidden;rotatable=0;points=[[0,0.5],[1,0.5]];portConstraint=eastwest;" vertex="1" parent="110">
                    <mxGeometry y="26" width="180" height="26" as="geometry"/>
                </mxCell>
                <mxCell id="112" value="Item 2" style="text;strokeColor=none;fillColor=none;align=left;verticalAlign=top;spacingLeft=4;spacingRight=4;overflow=hidden;rotatable=0;points=[[0,0.5],[1,0.5]];portConstraint=eastwest;" vertex="1" parent="110">
                    <mxGeometry y="52" width="180" height="26" as="geometry"/>
                </mxCell>
                <mxCell id="113" value="Item 3" style="text;strokeColor=none;fillColor=none;align=left;verticalAlign=top;spacingLeft=4;spacingRight=4;overflow=hidden;rotatable=0;points=[[0,0.5],[1,0.5]];portConstraint=eastwest;" vertex="1" parent="110">
                    <mxGeometry y="78" width="180" height="26" as="geometry"/>
                </mxCell>
                <mxCell id="114" value="© Copyright 2021 Vu Hoang Anh" style="text;html=1;align=center;verticalAlign=middle;resizable=0;points=[];autosize=1;strokeColor=none;" vertex="1" parent="1">
                    <mxGeometry x="320" y="920" width="190" height="20" as="geometry"/>
                </mxCell>
            </root>
        </mxGraphModel>
    </diagram>
    <diagram name="/nhan-vien/id" id="tFvoktKFrnjc-3vU87oH">
        <mxGraphModel dx="1163" dy="566" grid="1" gridSize="10" guides="1" tooltips="1" connect="1" arrows="1" fold="1" page="1" pageScale="1" pageWidth="850" pageHeight="1100" math="0" shadow="0">
            <root>
                <mxCell id="fBJCU1KtAhi9RVnzrarU-0"/>
                <mxCell id="fBJCU1KtAhi9RVnzrarU-1" parent="fBJCU1KtAhi9RVnzrarU-0"/>
                <mxCell id="fBJCU1KtAhi9RVnzrarU-2" value="" style="endArrow=none;html=1;" edge="1" parent="fBJCU1KtAhi9RVnzrarU-1">
                    <mxGeometry width="50" height="50" relative="1" as="geometry">
                        <mxPoint y="80" as="sourcePoint"/>
                        <mxPoint x="840" y="80" as="targetPoint"/>
                    </mxGeometry>
                </mxCell>
                <mxCell id="fBJCU1KtAhi9RVnzrarU-3" value="LOGO" style="rounded=1;whiteSpace=wrap;html=1;" vertex="1" parent="fBJCU1KtAhi9RVnzrarU-1">
                    <mxGeometry x="80" y="20" width="60" height="40" as="geometry"/>
                </mxCell>
                <mxCell id="fBJCU1KtAhi9RVnzrarU-4" value="&lt;span style=&quot;white-space: pre&quot;&gt;&#9;&lt;/span&gt;&lt;span style=&quot;white-space: pre&quot;&gt;&#9;&lt;/span&gt;&lt;span style=&quot;white-space: pre&quot;&gt;&#9;&lt;/span&gt;&lt;span style=&quot;white-space: pre&quot;&gt;&#9;&lt;/span&gt;&lt;span style=&quot;white-space: pre&quot;&gt;&#9;&lt;/span&gt;&lt;span style=&quot;white-space: pre&quot;&gt;&#9;&lt;/span&gt;&lt;span style=&quot;white-space: pre&quot;&gt;&#9;&lt;/span&gt;&lt;span style=&quot;white-space: pre&quot;&gt;&#9;&lt;/span&gt;&lt;span style=&quot;white-space: pre&quot;&gt;&#9;&lt;/span&gt;&lt;span style=&quot;white-space: pre&quot;&gt;&#9;&lt;/span&gt;" style="strokeWidth=1;shadow=0;dashed=0;align=center;html=1;shape=mxgraph.mockup.forms.rrect;rSize=0;strokeColor=#999999;" vertex="1" parent="fBJCU1KtAhi9RVnzrarU-1">
                    <mxGeometry x="160" y="20" width="360" height="40" as="geometry"/>
                </mxCell>
                <mxCell id="fBJCU1KtAhi9RVnzrarU-5" value="Nhân viên" style="strokeColor=inherit;fillColor=inherit;gradientColor=inherit;strokeWidth=1;shadow=0;dashed=0;align=center;html=1;shape=mxgraph.mockup.forms.rrect;rSize=0;fontSize=17;fontColor=#666666;" vertex="1" parent="fBJCU1KtAhi9RVnzrarU-4">
                    <mxGeometry width="120" height="40" as="geometry"/>
                </mxCell>
                <mxCell id="fBJCU1KtAhi9RVnzrarU-6" value="Phòng ban" style="strokeColor=inherit;fillColor=inherit;gradientColor=inherit;strokeWidth=1;shadow=0;dashed=0;align=center;html=1;shape=mxgraph.mockup.forms.rrect;rSize=0;fontSize=17;fontColor=#666666;" vertex="1" parent="fBJCU1KtAhi9RVnzrarU-4">
                    <mxGeometry x="120" width="120" height="40" as="geometry"/>
                </mxCell>
                <mxCell id="fBJCU1KtAhi9RVnzrarU-7" value="Bảng lương" style="strokeColor=inherit;fillColor=inherit;gradientColor=inherit;strokeWidth=1;shadow=0;dashed=0;align=center;html=1;shape=mxgraph.mockup.forms.rrect;rSize=0;fontSize=17;fontColor=#666666;" vertex="1" parent="fBJCU1KtAhi9RVnzrarU-4">
                    <mxGeometry x="240" width="120" height="40" as="geometry"/>
                </mxCell>
                <mxCell id="fBJCU1KtAhi9RVnzrarU-8" value="" style="endArrow=none;html=1;" edge="1" parent="fBJCU1KtAhi9RVnzrarU-1">
                    <mxGeometry width="50" height="50" relative="1" as="geometry">
                        <mxPoint y="240" as="sourcePoint"/>
                        <mxPoint x="840" y="240" as="targetPoint"/>
                    </mxGeometry>
                </mxCell>
                <mxCell id="fBJCU1KtAhi9RVnzrarU-9" value="&lt;font style=&quot;font-size: 32px&quot;&gt;Ứng dụng quản lý nhân sự v1.0&lt;/font&gt;" style="text;html=1;align=center;verticalAlign=middle;resizable=0;points=[];autosize=1;strokeColor=none;fontSize=32;" vertex="1" parent="fBJCU1KtAhi9RVnzrarU-1">
                    <mxGeometry x="80" y="135" width="470" height="40" as="geometry"/>
                </mxCell>
                <mxCell id="fBJCU1KtAhi9RVnzrarU-10" value="Nhập tên tìm kiếm..." style="rounded=1;whiteSpace=wrap;html=1;gradientColor=none;" vertex="1" parent="fBJCU1KtAhi9RVnzrarU-1">
                    <mxGeometry x="520" y="250" width="160" height="30" as="geometry"/>
                </mxCell>
                <mxCell id="fBJCU1KtAhi9RVnzrarU-11" value="&lt;font style=&quot;font-size: 14px&quot;&gt;Search&lt;/font&gt;" style="strokeWidth=1;shadow=0;dashed=0;align=center;html=1;shape=mxgraph.mockup.buttons.button;strokeColor=#666666;fontColor=#ffffff;mainText=;buttonStyle=round;fontSize=17;fontStyle=1;fillColor=#008cff;whiteSpace=wrap;" vertex="1" parent="fBJCU1KtAhi9RVnzrarU-1">
                    <mxGeometry x="690" y="250" width="80" height="30" as="geometry"/>
                </mxCell>
                <mxCell id="fBJCU1KtAhi9RVnzrarU-12" value="" style="group" vertex="1" connectable="0" parent="fBJCU1KtAhi9RVnzrarU-1">
                    <mxGeometry x="80" y="290" width="140" height="30" as="geometry"/>
                </mxCell>
                <mxCell id="fBJCU1KtAhi9RVnzrarU-13" value="Layer 2" style="strokeWidth=1;shadow=0;dashed=0;align=center;html=1;shape=mxgraph.mockup.navigation.anchor;fontSize=17;fontColor=#666666;fontStyle=1;gradientColor=none;" vertex="1" parent="fBJCU1KtAhi9RVnzrarU-12">
                    <mxGeometry width="60" height="30" as="geometry"/>
                </mxCell>
                <mxCell id="fBJCU1KtAhi9RVnzrarU-14" value="&gt;" style="strokeWidth=1;shadow=0;dashed=0;align=center;html=1;shape=mxgraph.mockup.navigation.anchor;fontSize=24;fontColor=#aaaaaa;fontStyle=1;gradientColor=none;" vertex="1" parent="fBJCU1KtAhi9RVnzrarU-12">
                    <mxGeometry x="60" width="20" height="30" as="geometry"/>
                </mxCell>
                <mxCell id="fBJCU1KtAhi9RVnzrarU-15" value="Layer 3" style="strokeWidth=1;shadow=0;dashed=0;align=center;html=1;shape=mxgraph.mockup.navigation.anchor;fontSize=17;fontColor=#008cff;fontStyle=1;gradientColor=none;" vertex="1" parent="fBJCU1KtAhi9RVnzrarU-12">
                    <mxGeometry x="80" width="60" height="30" as="geometry"/>
                </mxCell>
                <mxCell id="fBJCU1KtAhi9RVnzrarU-16" value="&lt;font style=&quot;font-size: 24px&quot;&gt;Nhân Viên&lt;/font&gt;" style="text;html=1;align=center;verticalAlign=middle;resizable=0;points=[];autosize=1;strokeColor=none;" vertex="1" parent="fBJCU1KtAhi9RVnzrarU-1">
                    <mxGeometry x="80" y="340" width="130" height="20" as="geometry"/>
                </mxCell>
                <mxCell id="fBJCU1KtAhi9RVnzrarU-17" value="" style="endArrow=none;html=1;fillColor=#b0e3e6;strokeColor=#0e8088;" edge="1" parent="fBJCU1KtAhi9RVnzrarU-1">
                    <mxGeometry width="50" height="50" relative="1" as="geometry">
                        <mxPoint x="80" y="370" as="sourcePoint"/>
                        <mxPoint x="780" y="370" as="targetPoint"/>
                    </mxGeometry>
                </mxCell>
                <mxCell id="fBJCU1KtAhi9RVnzrarU-54" value="" style="endArrow=none;html=1;" edge="1" parent="fBJCU1KtAhi9RVnzrarU-1">
                    <mxGeometry width="50" height="50" relative="1" as="geometry">
                        <mxPoint y="640" as="sourcePoint"/>
                        <mxPoint x="840" y="640" as="targetPoint"/>
                    </mxGeometry>
                </mxCell>
                <mxCell id="fBJCU1KtAhi9RVnzrarU-61" value="Our Address" style="swimlane;fontStyle=0;childLayout=stackLayout;horizontal=1;startSize=26;horizontalStack=0;resizeParent=1;resizeParentMax=0;resizeLast=0;collapsible=1;marginBottom=0;gradientColor=none;" vertex="1" parent="fBJCU1KtAhi9RVnzrarU-1">
                    <mxGeometry x="120" y="680" width="180" height="104" as="geometry"/>
                </mxCell>
                <mxCell id="fBJCU1KtAhi9RVnzrarU-62" value="Item 1" style="text;strokeColor=none;fillColor=none;align=left;verticalAlign=top;spacingLeft=4;spacingRight=4;overflow=hidden;rotatable=0;points=[[0,0.5],[1,0.5]];portConstraint=eastwest;" vertex="1" parent="fBJCU1KtAhi9RVnzrarU-61">
                    <mxGeometry y="26" width="180" height="26" as="geometry"/>
                </mxCell>
                <mxCell id="fBJCU1KtAhi9RVnzrarU-63" value="Item 2" style="text;strokeColor=none;fillColor=none;align=left;verticalAlign=top;spacingLeft=4;spacingRight=4;overflow=hidden;rotatable=0;points=[[0,0.5],[1,0.5]];portConstraint=eastwest;" vertex="1" parent="fBJCU1KtAhi9RVnzrarU-61">
                    <mxGeometry y="52" width="180" height="26" as="geometry"/>
                </mxCell>
                <mxCell id="fBJCU1KtAhi9RVnzrarU-64" value="Item 3" style="text;strokeColor=none;fillColor=none;align=left;verticalAlign=top;spacingLeft=4;spacingRight=4;overflow=hidden;rotatable=0;points=[[0,0.5],[1,0.5]];portConstraint=eastwest;" vertex="1" parent="fBJCU1KtAhi9RVnzrarU-61">
                    <mxGeometry y="78" width="180" height="26" as="geometry"/>
                </mxCell>
                <mxCell id="fBJCU1KtAhi9RVnzrarU-65" value="© Copyright 2021 Vu Hoang Anh" style="text;html=1;align=center;verticalAlign=middle;resizable=0;points=[];autosize=1;strokeColor=none;" vertex="1" parent="fBJCU1KtAhi9RVnzrarU-1">
                    <mxGeometry x="320" y="840" width="190" height="20" as="geometry"/>
                </mxCell>
                <mxCell id="LwFWaS2BknozrztnkcM5-0" value="" style="group" vertex="1" connectable="0" parent="fBJCU1KtAhi9RVnzrarU-1">
                    <mxGeometry x="440" y="720" width="240" height="40" as="geometry"/>
                </mxCell>
                <mxCell id="fBJCU1KtAhi9RVnzrarU-55" value="GG" style="rounded=0;whiteSpace=wrap;html=1;gradientColor=none;" vertex="1" parent="LwFWaS2BknozrztnkcM5-0">
                    <mxGeometry width="40" height="40" as="geometry"/>
                </mxCell>
                <mxCell id="fBJCU1KtAhi9RVnzrarU-56" value="FB" style="rounded=0;whiteSpace=wrap;html=1;gradientColor=none;" vertex="1" parent="LwFWaS2BknozrztnkcM5-0">
                    <mxGeometry x="40" width="40" height="40" as="geometry"/>
                </mxCell>
                <mxCell id="fBJCU1KtAhi9RVnzrarU-57" value="in" style="rounded=0;whiteSpace=wrap;html=1;gradientColor=none;" vertex="1" parent="LwFWaS2BknozrztnkcM5-0">
                    <mxGeometry x="80" width="40" height="40" as="geometry"/>
                </mxCell>
                <mxCell id="fBJCU1KtAhi9RVnzrarU-58" value="TW" style="rounded=0;whiteSpace=wrap;html=1;gradientColor=none;" vertex="1" parent="LwFWaS2BknozrztnkcM5-0">
                    <mxGeometry x="120" width="40" height="40" as="geometry"/>
                </mxCell>
                <mxCell id="fBJCU1KtAhi9RVnzrarU-59" value="YTB" style="rounded=0;whiteSpace=wrap;html=1;gradientColor=none;" vertex="1" parent="LwFWaS2BknozrztnkcM5-0">
                    <mxGeometry x="160" width="40" height="40" as="geometry"/>
                </mxCell>
                <mxCell id="fBJCU1KtAhi9RVnzrarU-60" value="MAIL" style="rounded=0;whiteSpace=wrap;html=1;gradientColor=none;" vertex="1" parent="LwFWaS2BknozrztnkcM5-0">
                    <mxGeometry x="200" width="40" height="40" as="geometry"/>
                </mxCell>
                <mxCell id="xxyf3l_XkmciVYDhmtZq-0" value="IMAGE" style="whiteSpace=wrap;html=1;aspect=fixed;gradientColor=none;" vertex="1" parent="fBJCU1KtAhi9RVnzrarU-1">
                    <mxGeometry x="80" y="400" width="200" height="200" as="geometry"/>
                </mxCell>
                <mxCell id="xxyf3l_XkmciVYDhmtZq-2" value="&lt;font&gt;&lt;font style=&quot;font-size: 20px&quot;&gt;&lt;b&gt;&lt;span style=&quot;white-space: pre&quot;&gt;&#9;&lt;/span&gt;Họ và tên: Nguyễn Văn A&lt;/b&gt;&lt;br&gt;&lt;/font&gt;&lt;span style=&quot;font-size: 18px ; white-space: pre&quot;&gt;&#9;&lt;/span&gt;&lt;span style=&quot;font-size: 18px&quot;&gt;Ngày sinh:&lt;/span&gt;&lt;br&gt;&lt;span style=&quot;font-size: 18px ; white-space: pre&quot;&gt;&#9;&lt;/span&gt;&lt;span style=&quot;font-size: 18px&quot;&gt;Ngày vào công ty:&lt;/span&gt;&lt;br&gt;&lt;span style=&quot;font-size: 18px ; white-space: pre&quot;&gt;&#9;&lt;/span&gt;&lt;span style=&quot;font-size: 18px&quot;&gt;Phòng ban:&lt;/span&gt;&lt;br&gt;&lt;span style=&quot;font-size: 18px ; white-space: pre&quot;&gt;&#9;&lt;/span&gt;&lt;span style=&quot;font-size: 18px&quot;&gt;Số ngày nghỉ còn lại:&lt;/span&gt;&lt;br&gt;&lt;span style=&quot;font-size: 18px ; white-space: pre&quot;&gt;&#9;&lt;/span&gt;&lt;span style=&quot;font-size: 18px&quot;&gt;Số ngày đã làm thêm:&lt;/span&gt;&lt;/font&gt;" style="rounded=0;whiteSpace=wrap;html=1;gradientColor=none;align=left;fontSize=20;" vertex="1" parent="fBJCU1KtAhi9RVnzrarU-1">
                    <mxGeometry x="290" y="400" width="490" height="200" as="geometry"/>
                </mxCell>
            </root>
        </mxGraphModel>
    </diagram>
    <diagram name="/phong-ban" id="gQgYQ2A4urwTkyGHwcc-">
        <mxGraphModel dx="1396" dy="679" grid="1" gridSize="10" guides="1" tooltips="1" connect="1" arrows="1" fold="1" page="1" pageScale="1" pageWidth="850" pageHeight="1100" math="0" shadow="0">
            <root>
                <mxCell id="k9tQHx9mgcvcJnY4w_4m-0"/>
                <mxCell id="k9tQHx9mgcvcJnY4w_4m-1" parent="k9tQHx9mgcvcJnY4w_4m-0"/>
                <mxCell id="k9tQHx9mgcvcJnY4w_4m-2" value="" style="endArrow=none;html=1;" edge="1" parent="k9tQHx9mgcvcJnY4w_4m-1">
                    <mxGeometry width="50" height="50" relative="1" as="geometry">
                        <mxPoint y="80" as="sourcePoint"/>
                        <mxPoint x="840" y="80" as="targetPoint"/>
                    </mxGeometry>
                </mxCell>
                <mxCell id="k9tQHx9mgcvcJnY4w_4m-3" value="LOGO" style="rounded=1;whiteSpace=wrap;html=1;" vertex="1" parent="k9tQHx9mgcvcJnY4w_4m-1">
                    <mxGeometry x="80" y="20" width="60" height="40" as="geometry"/>
                </mxCell>
                <mxCell id="k9tQHx9mgcvcJnY4w_4m-4" value="&lt;span style=&quot;white-space: pre&quot;&gt;&#9;&lt;/span&gt;&lt;span style=&quot;white-space: pre&quot;&gt;&#9;&lt;/span&gt;&lt;span style=&quot;white-space: pre&quot;&gt;&#9;&lt;/span&gt;&lt;span style=&quot;white-space: pre&quot;&gt;&#9;&lt;/span&gt;&lt;span style=&quot;white-space: pre&quot;&gt;&#9;&lt;/span&gt;&lt;span style=&quot;white-space: pre&quot;&gt;&#9;&lt;/span&gt;&lt;span style=&quot;white-space: pre&quot;&gt;&#9;&lt;/span&gt;&lt;span style=&quot;white-space: pre&quot;&gt;&#9;&lt;/span&gt;&lt;span style=&quot;white-space: pre&quot;&gt;&#9;&lt;/span&gt;&lt;span style=&quot;white-space: pre&quot;&gt;&#9;&lt;/span&gt;" style="strokeWidth=1;shadow=0;dashed=0;align=center;html=1;shape=mxgraph.mockup.forms.rrect;rSize=0;strokeColor=#999999;" vertex="1" parent="k9tQHx9mgcvcJnY4w_4m-1">
                    <mxGeometry x="160" y="20" width="360" height="40" as="geometry"/>
                </mxCell>
                <mxCell id="k9tQHx9mgcvcJnY4w_4m-5" value="Nhân viên" style="strokeColor=inherit;fillColor=inherit;gradientColor=inherit;strokeWidth=1;shadow=0;dashed=0;align=center;html=1;shape=mxgraph.mockup.forms.rrect;rSize=0;fontSize=17;fontColor=#666666;" vertex="1" parent="k9tQHx9mgcvcJnY4w_4m-4">
                    <mxGeometry width="120" height="40" as="geometry"/>
                </mxCell>
                <mxCell id="k9tQHx9mgcvcJnY4w_4m-6" value="Phòng ban" style="strokeColor=inherit;fillColor=inherit;gradientColor=inherit;strokeWidth=1;shadow=0;dashed=0;align=center;html=1;shape=mxgraph.mockup.forms.rrect;rSize=0;fontSize=17;fontColor=#666666;" vertex="1" parent="k9tQHx9mgcvcJnY4w_4m-4">
                    <mxGeometry x="120" width="120" height="40" as="geometry"/>
                </mxCell>
                <mxCell id="k9tQHx9mgcvcJnY4w_4m-7" value="Bảng lương" style="strokeColor=inherit;fillColor=inherit;gradientColor=inherit;strokeWidth=1;shadow=0;dashed=0;align=center;html=1;shape=mxgraph.mockup.forms.rrect;rSize=0;fontSize=17;fontColor=#666666;" vertex="1" parent="k9tQHx9mgcvcJnY4w_4m-4">
                    <mxGeometry x="240" width="120" height="40" as="geometry"/>
                </mxCell>
                <mxCell id="k9tQHx9mgcvcJnY4w_4m-8" value="" style="endArrow=none;html=1;" edge="1" parent="k9tQHx9mgcvcJnY4w_4m-1">
                    <mxGeometry width="50" height="50" relative="1" as="geometry">
                        <mxPoint y="240" as="sourcePoint"/>
                        <mxPoint x="840" y="240" as="targetPoint"/>
                    </mxGeometry>
                </mxCell>
                <mxCell id="k9tQHx9mgcvcJnY4w_4m-9" value="&lt;font style=&quot;font-size: 32px&quot;&gt;Ứng dụng quản lý nhân sự v1.0&lt;/font&gt;" style="text;html=1;align=center;verticalAlign=middle;resizable=0;points=[];autosize=1;strokeColor=none;fontSize=32;" vertex="1" parent="k9tQHx9mgcvcJnY4w_4m-1">
                    <mxGeometry x="80" y="135" width="470" height="40" as="geometry"/>
                </mxCell>
                <mxCell id="k9tQHx9mgcvcJnY4w_4m-10" value="Nhập tên tìm kiếm..." style="rounded=1;whiteSpace=wrap;html=1;gradientColor=none;" vertex="1" parent="k9tQHx9mgcvcJnY4w_4m-1">
                    <mxGeometry x="520" y="250" width="160" height="30" as="geometry"/>
                </mxCell>
                <mxCell id="k9tQHx9mgcvcJnY4w_4m-11" value="&lt;font style=&quot;font-size: 14px&quot;&gt;Search&lt;/font&gt;" style="strokeWidth=1;shadow=0;dashed=0;align=center;html=1;shape=mxgraph.mockup.buttons.button;strokeColor=#666666;fontColor=#ffffff;mainText=;buttonStyle=round;fontSize=17;fontStyle=1;fillColor=#008cff;whiteSpace=wrap;" vertex="1" parent="k9tQHx9mgcvcJnY4w_4m-1">
                    <mxGeometry x="690" y="250" width="80" height="30" as="geometry"/>
                </mxCell>
                <mxCell id="k9tQHx9mgcvcJnY4w_4m-18" value="" style="endArrow=none;html=1;" edge="1" parent="k9tQHx9mgcvcJnY4w_4m-1">
                    <mxGeometry width="50" height="50" relative="1" as="geometry">
                        <mxPoint y="640" as="sourcePoint"/>
                        <mxPoint x="840" y="640" as="targetPoint"/>
                    </mxGeometry>
                </mxCell>
                <mxCell id="k9tQHx9mgcvcJnY4w_4m-19" value="Our Address" style="swimlane;fontStyle=0;childLayout=stackLayout;horizontal=1;startSize=26;horizontalStack=0;resizeParent=1;resizeParentMax=0;resizeLast=0;collapsible=1;marginBottom=0;gradientColor=none;" vertex="1" parent="k9tQHx9mgcvcJnY4w_4m-1">
                    <mxGeometry x="120" y="680" width="180" height="104" as="geometry"/>
                </mxCell>
                <mxCell id="k9tQHx9mgcvcJnY4w_4m-20" value="Item 1" style="text;strokeColor=none;fillColor=none;align=left;verticalAlign=top;spacingLeft=4;spacingRight=4;overflow=hidden;rotatable=0;points=[[0,0.5],[1,0.5]];portConstraint=eastwest;" vertex="1" parent="k9tQHx9mgcvcJnY4w_4m-19">
                    <mxGeometry y="26" width="180" height="26" as="geometry"/>
                </mxCell>
                <mxCell id="k9tQHx9mgcvcJnY4w_4m-21" value="Item 2" style="text;strokeColor=none;fillColor=none;align=left;verticalAlign=top;spacingLeft=4;spacingRight=4;overflow=hidden;rotatable=0;points=[[0,0.5],[1,0.5]];portConstraint=eastwest;" vertex="1" parent="k9tQHx9mgcvcJnY4w_4m-19">
                    <mxGeometry y="52" width="180" height="26" as="geometry"/>
                </mxCell>
                <mxCell id="k9tQHx9mgcvcJnY4w_4m-22" value="Item 3" style="text;strokeColor=none;fillColor=none;align=left;verticalAlign=top;spacingLeft=4;spacingRight=4;overflow=hidden;rotatable=0;points=[[0,0.5],[1,0.5]];portConstraint=eastwest;" vertex="1" parent="k9tQHx9mgcvcJnY4w_4m-19">
                    <mxGeometry y="78" width="180" height="26" as="geometry"/>
                </mxCell>
                <mxCell id="k9tQHx9mgcvcJnY4w_4m-23" value="© Copyright 2021 Vu Hoang Anh" style="text;html=1;align=center;verticalAlign=middle;resizable=0;points=[];autosize=1;strokeColor=none;" vertex="1" parent="k9tQHx9mgcvcJnY4w_4m-1">
                    <mxGeometry x="320" y="840" width="190" height="20" as="geometry"/>
                </mxCell>
                <mxCell id="k9tQHx9mgcvcJnY4w_4m-24" value="" style="group" vertex="1" connectable="0" parent="k9tQHx9mgcvcJnY4w_4m-1">
                    <mxGeometry x="440" y="720" width="240" height="40" as="geometry"/>
                </mxCell>
                <mxCell id="k9tQHx9mgcvcJnY4w_4m-25" value="GG" style="rounded=0;whiteSpace=wrap;html=1;gradientColor=none;" vertex="1" parent="k9tQHx9mgcvcJnY4w_4m-24">
                    <mxGeometry width="40" height="40" as="geometry"/>
                </mxCell>
                <mxCell id="k9tQHx9mgcvcJnY4w_4m-26" value="FB" style="rounded=0;whiteSpace=wrap;html=1;gradientColor=none;" vertex="1" parent="k9tQHx9mgcvcJnY4w_4m-24">
                    <mxGeometry x="40" width="40" height="40" as="geometry"/>
                </mxCell>
                <mxCell id="k9tQHx9mgcvcJnY4w_4m-27" value="in" style="rounded=0;whiteSpace=wrap;html=1;gradientColor=none;" vertex="1" parent="k9tQHx9mgcvcJnY4w_4m-24">
                    <mxGeometry x="80" width="40" height="40" as="geometry"/>
                </mxCell>
                <mxCell id="k9tQHx9mgcvcJnY4w_4m-28" value="TW" style="rounded=0;whiteSpace=wrap;html=1;gradientColor=none;" vertex="1" parent="k9tQHx9mgcvcJnY4w_4m-24">
                    <mxGeometry x="120" width="40" height="40" as="geometry"/>
                </mxCell>
                <mxCell id="k9tQHx9mgcvcJnY4w_4m-29" value="YTB" style="rounded=0;whiteSpace=wrap;html=1;gradientColor=none;" vertex="1" parent="k9tQHx9mgcvcJnY4w_4m-24">
                    <mxGeometry x="160" width="40" height="40" as="geometry"/>
                </mxCell>
                <mxCell id="k9tQHx9mgcvcJnY4w_4m-30" value="MAIL" style="rounded=0;whiteSpace=wrap;html=1;gradientColor=none;" vertex="1" parent="k9tQHx9mgcvcJnY4w_4m-24">
                    <mxGeometry x="200" width="40" height="40" as="geometry"/>
                </mxCell>
                <mxCell id="k9tQHx9mgcvcJnY4w_4m-39" value="" style="group" vertex="1" connectable="0" parent="k9tQHx9mgcvcJnY4w_4m-1">
                    <mxGeometry x="85" y="350" width="680" height="200" as="geometry"/>
                </mxCell>
                <mxCell id="k9tQHx9mgcvcJnY4w_4m-33" value="&lt;font&gt;&lt;span style=&quot;font-size: 20px&quot;&gt;Sale&lt;/span&gt;&lt;br&gt;&lt;span style=&quot;font-size: 20px ; white-space: pre&quot;&gt;&#9;&lt;/span&gt;&lt;font style=&quot;font-size: 15px&quot;&gt;Số lượng nhân viên: 1&lt;/font&gt;&lt;/font&gt;" style="rounded=0;whiteSpace=wrap;html=1;gradientColor=none;align=left;" vertex="1" parent="k9tQHx9mgcvcJnY4w_4m-39">
                    <mxGeometry width="200" height="80" as="geometry"/>
                </mxCell>
                <mxCell id="SWaf-0dGjm0A_Fr0gGm1-0" value="&lt;font&gt;&lt;span style=&quot;font-size: 20px&quot;&gt;HR&lt;/span&gt;&lt;br&gt;&lt;span style=&quot;font-size: 20px ; white-space: pre&quot;&gt;&#9;&lt;/span&gt;&lt;font style=&quot;font-size: 15px&quot;&gt;Số lượng nhân viên: 1&lt;/font&gt;&lt;/font&gt;" style="rounded=0;whiteSpace=wrap;html=1;gradientColor=none;align=left;" vertex="1" parent="k9tQHx9mgcvcJnY4w_4m-39">
                    <mxGeometry x="240" width="200" height="80" as="geometry"/>
                </mxCell>
                <mxCell id="SWaf-0dGjm0A_Fr0gGm1-1" value="&lt;font&gt;&lt;span style=&quot;font-size: 20px&quot;&gt;Marketing&lt;/span&gt;&lt;br&gt;&lt;span style=&quot;font-size: 20px ; white-space: pre&quot;&gt;&#9;&lt;/span&gt;&lt;font style=&quot;font-size: 15px&quot;&gt;Số lượng nhân viên: 1&lt;/font&gt;&lt;/font&gt;" style="rounded=0;whiteSpace=wrap;html=1;gradientColor=none;align=left;" vertex="1" parent="k9tQHx9mgcvcJnY4w_4m-39">
                    <mxGeometry x="480" width="200" height="80" as="geometry"/>
                </mxCell>
                <mxCell id="SWaf-0dGjm0A_Fr0gGm1-2" value="&lt;font&gt;&lt;span style=&quot;font-size: 20px&quot;&gt;IT&lt;/span&gt;&lt;br&gt;&lt;span style=&quot;font-size: 20px ; white-space: pre&quot;&gt;&#9;&lt;/span&gt;&lt;font style=&quot;font-size: 15px&quot;&gt;Số lượng nhân viên: 1&lt;/font&gt;&lt;/font&gt;" style="rounded=0;whiteSpace=wrap;html=1;gradientColor=none;align=left;" vertex="1" parent="k9tQHx9mgcvcJnY4w_4m-39">
                    <mxGeometry y="120" width="200" height="80" as="geometry"/>
                </mxCell>
                <mxCell id="SWaf-0dGjm0A_Fr0gGm1-8" value="&lt;font&gt;&lt;span style=&quot;font-size: 20px&quot;&gt;Finance&lt;/span&gt;&lt;br&gt;&lt;span style=&quot;font-size: 20px ; white-space: pre&quot;&gt;&#9;&lt;/span&gt;&lt;font style=&quot;font-size: 15px&quot;&gt;Số lượng nhân viên: 1&lt;/font&gt;&lt;/font&gt;" style="rounded=0;whiteSpace=wrap;html=1;gradientColor=none;align=left;" vertex="1" parent="k9tQHx9mgcvcJnY4w_4m-39">
                    <mxGeometry x="240" y="120" width="200" height="80" as="geometry"/>
                </mxCell>
            </root>
        </mxGraphModel>
    </diagram>
    <diagram name="/bang-luong" id="nB5nC36i5J8LjGCB5LW1">
        <mxGraphModel dx="1396" dy="679" grid="1" gridSize="10" guides="1" tooltips="1" connect="1" arrows="1" fold="1" page="1" pageScale="1" pageWidth="850" pageHeight="1100" math="0" shadow="0">
            <root>
                <mxCell id="XhmPvQIZ5Lel8AvEuP6r-0"/>
                <mxCell id="XhmPvQIZ5Lel8AvEuP6r-1" parent="XhmPvQIZ5Lel8AvEuP6r-0"/>
                <mxCell id="XhmPvQIZ5Lel8AvEuP6r-2" value="" style="endArrow=none;html=1;" edge="1" parent="XhmPvQIZ5Lel8AvEuP6r-1">
                    <mxGeometry width="50" height="50" relative="1" as="geometry">
                        <mxPoint y="80" as="sourcePoint"/>
                        <mxPoint x="840" y="80" as="targetPoint"/>
                    </mxGeometry>
                </mxCell>
                <mxCell id="XhmPvQIZ5Lel8AvEuP6r-3" value="LOGO" style="rounded=1;whiteSpace=wrap;html=1;" vertex="1" parent="XhmPvQIZ5Lel8AvEuP6r-1">
                    <mxGeometry x="80" y="20" width="60" height="40" as="geometry"/>
                </mxCell>
                <mxCell id="XhmPvQIZ5Lel8AvEuP6r-4" value="&lt;span style=&quot;white-space: pre&quot;&gt;&#9;&lt;/span&gt;&lt;span style=&quot;white-space: pre&quot;&gt;&#9;&lt;/span&gt;&lt;span style=&quot;white-space: pre&quot;&gt;&#9;&lt;/span&gt;&lt;span style=&quot;white-space: pre&quot;&gt;&#9;&lt;/span&gt;&lt;span style=&quot;white-space: pre&quot;&gt;&#9;&lt;/span&gt;&lt;span style=&quot;white-space: pre&quot;&gt;&#9;&lt;/span&gt;&lt;span style=&quot;white-space: pre&quot;&gt;&#9;&lt;/span&gt;&lt;span style=&quot;white-space: pre&quot;&gt;&#9;&lt;/span&gt;&lt;span style=&quot;white-space: pre&quot;&gt;&#9;&lt;/span&gt;&lt;span style=&quot;white-space: pre&quot;&gt;&#9;&lt;/span&gt;" style="strokeWidth=1;shadow=0;dashed=0;align=center;html=1;shape=mxgraph.mockup.forms.rrect;rSize=0;strokeColor=#999999;" vertex="1" parent="XhmPvQIZ5Lel8AvEuP6r-1">
                    <mxGeometry x="160" y="20" width="360" height="40" as="geometry"/>
                </mxCell>
                <mxCell id="XhmPvQIZ5Lel8AvEuP6r-5" value="Nhân viên" style="strokeColor=inherit;fillColor=inherit;gradientColor=inherit;strokeWidth=1;shadow=0;dashed=0;align=center;html=1;shape=mxgraph.mockup.forms.rrect;rSize=0;fontSize=17;fontColor=#666666;" vertex="1" parent="XhmPvQIZ5Lel8AvEuP6r-4">
                    <mxGeometry width="120" height="40" as="geometry"/>
                </mxCell>
                <mxCell id="XhmPvQIZ5Lel8AvEuP6r-6" value="Phòng ban" style="strokeColor=inherit;fillColor=inherit;gradientColor=inherit;strokeWidth=1;shadow=0;dashed=0;align=center;html=1;shape=mxgraph.mockup.forms.rrect;rSize=0;fontSize=17;fontColor=#666666;" vertex="1" parent="XhmPvQIZ5Lel8AvEuP6r-4">
                    <mxGeometry x="120" width="120" height="40" as="geometry"/>
                </mxCell>
                <mxCell id="XhmPvQIZ5Lel8AvEuP6r-7" value="Bảng lương" style="strokeColor=inherit;fillColor=inherit;gradientColor=inherit;strokeWidth=1;shadow=0;dashed=0;align=center;html=1;shape=mxgraph.mockup.forms.rrect;rSize=0;fontSize=17;fontColor=#666666;" vertex="1" parent="XhmPvQIZ5Lel8AvEuP6r-4">
                    <mxGeometry x="240" width="120" height="40" as="geometry"/>
                </mxCell>
                <mxCell id="XhmPvQIZ5Lel8AvEuP6r-8" value="" style="endArrow=none;html=1;" edge="1" parent="XhmPvQIZ5Lel8AvEuP6r-1">
                    <mxGeometry width="50" height="50" relative="1" as="geometry">
                        <mxPoint y="240" as="sourcePoint"/>
                        <mxPoint x="840" y="240" as="targetPoint"/>
                    </mxGeometry>
                </mxCell>
                <mxCell id="XhmPvQIZ5Lel8AvEuP6r-9" value="&lt;font style=&quot;font-size: 32px&quot;&gt;Ứng dụng quản lý nhân sự v1.0&lt;/font&gt;" style="text;html=1;align=center;verticalAlign=middle;resizable=0;points=[];autosize=1;strokeColor=none;fontSize=32;" vertex="1" parent="XhmPvQIZ5Lel8AvEuP6r-1">
                    <mxGeometry x="80" y="135" width="470" height="40" as="geometry"/>
                </mxCell>
                <mxCell id="XhmPvQIZ5Lel8AvEuP6r-10" value="Nhập tên tìm kiếm..." style="rounded=1;whiteSpace=wrap;html=1;gradientColor=none;" vertex="1" parent="XhmPvQIZ5Lel8AvEuP6r-1">
                    <mxGeometry x="520" y="250" width="160" height="30" as="geometry"/>
                </mxCell>
                <mxCell id="XhmPvQIZ5Lel8AvEuP6r-11" value="&lt;font style=&quot;font-size: 14px&quot;&gt;Search&lt;/font&gt;" style="strokeWidth=1;shadow=0;dashed=0;align=center;html=1;shape=mxgraph.mockup.buttons.button;strokeColor=#666666;fontColor=#ffffff;mainText=;buttonStyle=round;fontSize=17;fontStyle=1;fillColor=#008cff;whiteSpace=wrap;" vertex="1" parent="XhmPvQIZ5Lel8AvEuP6r-1">
                    <mxGeometry x="690" y="250" width="80" height="30" as="geometry"/>
                </mxCell>
                <mxCell id="XhmPvQIZ5Lel8AvEuP6r-12" value="" style="group" vertex="1" connectable="0" parent="XhmPvQIZ5Lel8AvEuP6r-1">
                    <mxGeometry x="80" y="290" width="200" height="30" as="geometry"/>
                </mxCell>
                <mxCell id="XhmPvQIZ5Lel8AvEuP6r-13" value="Nhân viên" style="strokeWidth=1;shadow=0;dashed=0;align=center;html=1;shape=mxgraph.mockup.navigation.anchor;fontSize=17;fontColor=#666666;fontStyle=1;gradientColor=none;" vertex="1" parent="XhmPvQIZ5Lel8AvEuP6r-12">
                    <mxGeometry width="85.71428571428571" height="30" as="geometry"/>
                </mxCell>
                <mxCell id="XhmPvQIZ5Lel8AvEuP6r-14" value="&gt;" style="strokeWidth=1;shadow=0;dashed=0;align=center;html=1;shape=mxgraph.mockup.navigation.anchor;fontSize=24;fontColor=#aaaaaa;fontStyle=1;gradientColor=none;" vertex="1" parent="XhmPvQIZ5Lel8AvEuP6r-12">
                    <mxGeometry x="85.71428571428571" width="28.57142857142857" height="30" as="geometry"/>
                </mxCell>
                <mxCell id="XhmPvQIZ5Lel8AvEuP6r-15" value="Bảng lương" style="strokeWidth=1;shadow=0;dashed=0;align=center;html=1;shape=mxgraph.mockup.navigation.anchor;fontSize=17;fontColor=#008cff;fontStyle=1;gradientColor=none;" vertex="1" parent="XhmPvQIZ5Lel8AvEuP6r-12">
                    <mxGeometry x="114.28571428571428" width="85.71428571428571" height="30" as="geometry"/>
                </mxCell>
                <mxCell id="XhmPvQIZ5Lel8AvEuP6r-16" value="&lt;font style=&quot;font-size: 24px&quot;&gt;Bảng Lương&lt;/font&gt;" style="text;html=1;align=center;verticalAlign=middle;resizable=0;points=[];autosize=1;strokeColor=none;" vertex="1" parent="XhmPvQIZ5Lel8AvEuP6r-1">
                    <mxGeometry x="80" y="340" width="150" height="20" as="geometry"/>
                </mxCell>
                <mxCell id="XhmPvQIZ5Lel8AvEuP6r-17" value="" style="endArrow=none;html=1;fillColor=#b0e3e6;strokeColor=#0e8088;" edge="1" parent="XhmPvQIZ5Lel8AvEuP6r-1">
                    <mxGeometry width="50" height="50" relative="1" as="geometry">
                        <mxPoint x="80" y="370" as="sourcePoint"/>
                        <mxPoint x="780" y="370" as="targetPoint"/>
                    </mxGeometry>
                </mxCell>
                <mxCell id="XhmPvQIZ5Lel8AvEuP6r-54" value="" style="endArrow=none;html=1;" edge="1" parent="XhmPvQIZ5Lel8AvEuP6r-1">
                    <mxGeometry width="50" height="50" relative="1" as="geometry">
                        <mxPoint y="720" as="sourcePoint"/>
                        <mxPoint x="840" y="720" as="targetPoint"/>
                    </mxGeometry>
                </mxCell>
                <mxCell id="XhmPvQIZ5Lel8AvEuP6r-55" value="GG" style="rounded=0;whiteSpace=wrap;html=1;gradientColor=none;" vertex="1" parent="XhmPvQIZ5Lel8AvEuP6r-1">
                    <mxGeometry x="440" y="800" width="40" height="40" as="geometry"/>
                </mxCell>
                <mxCell id="XhmPvQIZ5Lel8AvEuP6r-56" value="FB" style="rounded=0;whiteSpace=wrap;html=1;gradientColor=none;" vertex="1" parent="XhmPvQIZ5Lel8AvEuP6r-1">
                    <mxGeometry x="480" y="800" width="40" height="40" as="geometry"/>
                </mxCell>
                <mxCell id="XhmPvQIZ5Lel8AvEuP6r-57" value="in" style="rounded=0;whiteSpace=wrap;html=1;gradientColor=none;" vertex="1" parent="XhmPvQIZ5Lel8AvEuP6r-1">
                    <mxGeometry x="520" y="800" width="40" height="40" as="geometry"/>
                </mxCell>
                <mxCell id="XhmPvQIZ5Lel8AvEuP6r-58" value="TW" style="rounded=0;whiteSpace=wrap;html=1;gradientColor=none;" vertex="1" parent="XhmPvQIZ5Lel8AvEuP6r-1">
                    <mxGeometry x="560" y="800" width="40" height="40" as="geometry"/>
                </mxCell>
                <mxCell id="XhmPvQIZ5Lel8AvEuP6r-59" value="YTB" style="rounded=0;whiteSpace=wrap;html=1;gradientColor=none;" vertex="1" parent="XhmPvQIZ5Lel8AvEuP6r-1">
                    <mxGeometry x="600" y="800" width="40" height="40" as="geometry"/>
                </mxCell>
                <mxCell id="XhmPvQIZ5Lel8AvEuP6r-60" value="MAIL" style="rounded=0;whiteSpace=wrap;html=1;gradientColor=none;" vertex="1" parent="XhmPvQIZ5Lel8AvEuP6r-1">
                    <mxGeometry x="640" y="800" width="40" height="40" as="geometry"/>
                </mxCell>
                <mxCell id="XhmPvQIZ5Lel8AvEuP6r-61" value="Our Address" style="swimlane;fontStyle=0;childLayout=stackLayout;horizontal=1;startSize=26;horizontalStack=0;resizeParent=1;resizeParentMax=0;resizeLast=0;collapsible=1;marginBottom=0;gradientColor=none;" vertex="1" parent="XhmPvQIZ5Lel8AvEuP6r-1">
                    <mxGeometry x="120" y="760" width="180" height="104" as="geometry"/>
                </mxCell>
                <mxCell id="XhmPvQIZ5Lel8AvEuP6r-62" value="Item 1" style="text;strokeColor=none;fillColor=none;align=left;verticalAlign=top;spacingLeft=4;spacingRight=4;overflow=hidden;rotatable=0;points=[[0,0.5],[1,0.5]];portConstraint=eastwest;" vertex="1" parent="XhmPvQIZ5Lel8AvEuP6r-61">
                    <mxGeometry y="26" width="180" height="26" as="geometry"/>
                </mxCell>
                <mxCell id="XhmPvQIZ5Lel8AvEuP6r-63" value="Item 2" style="text;strokeColor=none;fillColor=none;align=left;verticalAlign=top;spacingLeft=4;spacingRight=4;overflow=hidden;rotatable=0;points=[[0,0.5],[1,0.5]];portConstraint=eastwest;" vertex="1" parent="XhmPvQIZ5Lel8AvEuP6r-61">
                    <mxGeometry y="52" width="180" height="26" as="geometry"/>
                </mxCell>
                <mxCell id="XhmPvQIZ5Lel8AvEuP6r-64" value="Item 3" style="text;strokeColor=none;fillColor=none;align=left;verticalAlign=top;spacingLeft=4;spacingRight=4;overflow=hidden;rotatable=0;points=[[0,0.5],[1,0.5]];portConstraint=eastwest;" vertex="1" parent="XhmPvQIZ5Lel8AvEuP6r-61">
                    <mxGeometry y="78" width="180" height="26" as="geometry"/>
                </mxCell>
                <mxCell id="XhmPvQIZ5Lel8AvEuP6r-65" value="© Copyright 2021 Vu Hoang Anh" style="text;html=1;align=center;verticalAlign=middle;resizable=0;points=[];autosize=1;strokeColor=none;" vertex="1" parent="XhmPvQIZ5Lel8AvEuP6r-1">
                    <mxGeometry x="320" y="920" width="190" height="20" as="geometry"/>
                </mxCell>
                <mxCell id="fPPLwF_CkYvQ2USY69X8-7" value="" style="group" vertex="1" connectable="0" parent="XhmPvQIZ5Lel8AvEuP6r-1">
                    <mxGeometry x="90" y="390" width="200" height="140" as="geometry"/>
                </mxCell>
                <mxCell id="fPPLwF_CkYvQ2USY69X8-0" value="&lt;b style=&quot;font-size: 15px&quot;&gt;Nguyễn Văn A&lt;br&gt;&lt;/b&gt;&lt;span style=&quot;white-space: pre&quot;&gt;&#9;&lt;/span&gt;&lt;font style=&quot;font-size: 13px&quot;&gt;Mã Nhân Viên:&amp;nbsp;&lt;br&gt;&lt;span style=&quot;white-space: pre&quot;&gt;&#9;&lt;/span&gt;Hệ số lương:&lt;br&gt;&lt;span style=&quot;white-space: pre&quot;&gt;&#9;&lt;/span&gt;Số giờ làm thêm:&lt;br&gt;&lt;/font&gt;&lt;br&gt;&lt;br&gt;&lt;br&gt;" style="rounded=0;whiteSpace=wrap;html=1;gradientColor=none;align=left;" vertex="1" parent="fPPLwF_CkYvQ2USY69X8-7">
                    <mxGeometry width="200" height="140" as="geometry"/>
                </mxCell>
                <mxCell id="fPPLwF_CkYvQ2USY69X8-6" value="Lương: 4500000" style="rounded=0;whiteSpace=wrap;html=1;gradientColor=none;" vertex="1" parent="fPPLwF_CkYvQ2USY69X8-7">
                    <mxGeometry x="15" y="100" width="170" height="30" as="geometry"/>
                </mxCell>
                <mxCell id="fPPLwF_CkYvQ2USY69X8-8" value="" style="group" vertex="1" connectable="0" parent="XhmPvQIZ5Lel8AvEuP6r-1">
                    <mxGeometry x="325" y="390" width="200" height="140" as="geometry"/>
                </mxCell>
                <mxCell id="fPPLwF_CkYvQ2USY69X8-9" value="&lt;b style=&quot;font-size: 15px&quot;&gt;Nguyễn Văn A&lt;br&gt;&lt;/b&gt;&lt;span style=&quot;white-space: pre&quot;&gt;&#9;&lt;/span&gt;&lt;font style=&quot;font-size: 13px&quot;&gt;Mã Nhân Viên:&amp;nbsp;&lt;br&gt;&lt;span style=&quot;white-space: pre&quot;&gt;&#9;&lt;/span&gt;Hệ số lương:&lt;br&gt;&lt;span style=&quot;white-space: pre&quot;&gt;&#9;&lt;/span&gt;Số giờ làm thêm:&lt;br&gt;&lt;/font&gt;&lt;br&gt;&lt;br&gt;&lt;br&gt;" style="rounded=0;whiteSpace=wrap;html=1;gradientColor=none;align=left;" vertex="1" parent="fPPLwF_CkYvQ2USY69X8-8">
                    <mxGeometry width="200" height="140" as="geometry"/>
                </mxCell>
                <mxCell id="fPPLwF_CkYvQ2USY69X8-10" value="Lương: 4500000" style="rounded=0;whiteSpace=wrap;html=1;gradientColor=none;" vertex="1" parent="fPPLwF_CkYvQ2USY69X8-8">
                    <mxGeometry x="15" y="100" width="170" height="30" as="geometry"/>
                </mxCell>
                <mxCell id="fPPLwF_CkYvQ2USY69X8-11" value="" style="group" vertex="1" connectable="0" parent="XhmPvQIZ5Lel8AvEuP6r-1">
                    <mxGeometry x="560" y="560" width="200" height="140" as="geometry"/>
                </mxCell>
                <mxCell id="fPPLwF_CkYvQ2USY69X8-12" value="&lt;b style=&quot;font-size: 15px&quot;&gt;Nguyễn Văn A&lt;br&gt;&lt;/b&gt;&lt;span style=&quot;white-space: pre&quot;&gt;&#9;&lt;/span&gt;&lt;font style=&quot;font-size: 13px&quot;&gt;Mã Nhân Viên:&amp;nbsp;&lt;br&gt;&lt;span style=&quot;white-space: pre&quot;&gt;&#9;&lt;/span&gt;Hệ số lương:&lt;br&gt;&lt;span style=&quot;white-space: pre&quot;&gt;&#9;&lt;/span&gt;Số giờ làm thêm:&lt;br&gt;&lt;/font&gt;&lt;br&gt;&lt;br&gt;&lt;br&gt;" style="rounded=0;whiteSpace=wrap;html=1;gradientColor=none;align=left;" vertex="1" parent="fPPLwF_CkYvQ2USY69X8-11">
                    <mxGeometry width="200" height="140" as="geometry"/>
                </mxCell>
                <mxCell id="fPPLwF_CkYvQ2USY69X8-13" value="Lương: 4500000" style="rounded=0;whiteSpace=wrap;html=1;gradientColor=none;" vertex="1" parent="fPPLwF_CkYvQ2USY69X8-11">
                    <mxGeometry x="15" y="100" width="170" height="30" as="geometry"/>
                </mxCell>
                <mxCell id="fPPLwF_CkYvQ2USY69X8-14" value="" style="group" vertex="1" connectable="0" parent="XhmPvQIZ5Lel8AvEuP6r-1">
                    <mxGeometry x="560" y="390" width="200" height="140" as="geometry"/>
                </mxCell>
                <mxCell id="fPPLwF_CkYvQ2USY69X8-15" value="&lt;b style=&quot;font-size: 15px&quot;&gt;Nguyễn Văn A&lt;br&gt;&lt;/b&gt;&lt;span style=&quot;white-space: pre&quot;&gt;&#9;&lt;/span&gt;&lt;font style=&quot;font-size: 13px&quot;&gt;Mã Nhân Viên:&amp;nbsp;&lt;br&gt;&lt;span style=&quot;white-space: pre&quot;&gt;&#9;&lt;/span&gt;Hệ số lương:&lt;br&gt;&lt;span style=&quot;white-space: pre&quot;&gt;&#9;&lt;/span&gt;Số giờ làm thêm:&lt;br&gt;&lt;/font&gt;&lt;br&gt;&lt;br&gt;&lt;br&gt;" style="rounded=0;whiteSpace=wrap;html=1;gradientColor=none;align=left;" vertex="1" parent="fPPLwF_CkYvQ2USY69X8-14">
                    <mxGeometry width="200" height="140" as="geometry"/>
                </mxCell>
                <mxCell id="fPPLwF_CkYvQ2USY69X8-16" value="Lương: 4500000" style="rounded=0;whiteSpace=wrap;html=1;gradientColor=none;" vertex="1" parent="fPPLwF_CkYvQ2USY69X8-14">
                    <mxGeometry x="15" y="100" width="170" height="30" as="geometry"/>
                </mxCell>
                <mxCell id="fPPLwF_CkYvQ2USY69X8-18" value="" style="group" vertex="1" connectable="0" parent="XhmPvQIZ5Lel8AvEuP6r-1">
                    <mxGeometry x="325" y="560" width="200" height="140" as="geometry"/>
                </mxCell>
                <mxCell id="fPPLwF_CkYvQ2USY69X8-19" value="&lt;b style=&quot;font-size: 15px&quot;&gt;Nguyễn Văn A&lt;br&gt;&lt;/b&gt;&lt;span style=&quot;white-space: pre&quot;&gt;&#9;&lt;/span&gt;&lt;font style=&quot;font-size: 13px&quot;&gt;Mã Nhân Viên:&amp;nbsp;&lt;br&gt;&lt;span style=&quot;white-space: pre&quot;&gt;&#9;&lt;/span&gt;Hệ số lương:&lt;br&gt;&lt;span style=&quot;white-space: pre&quot;&gt;&#9;&lt;/span&gt;Số giờ làm thêm:&lt;br&gt;&lt;/font&gt;&lt;br&gt;&lt;br&gt;&lt;br&gt;" style="rounded=0;whiteSpace=wrap;html=1;gradientColor=none;align=left;" vertex="1" parent="fPPLwF_CkYvQ2USY69X8-18">
                    <mxGeometry width="200" height="140" as="geometry"/>
                </mxCell>
                <mxCell id="fPPLwF_CkYvQ2USY69X8-20" value="Lương: 4500000" style="rounded=0;whiteSpace=wrap;html=1;gradientColor=none;" vertex="1" parent="fPPLwF_CkYvQ2USY69X8-18">
                    <mxGeometry x="15" y="100" width="170" height="30" as="geometry"/>
                </mxCell>
                <mxCell id="fPPLwF_CkYvQ2USY69X8-22" value="" style="group" vertex="1" connectable="0" parent="XhmPvQIZ5Lel8AvEuP6r-1">
                    <mxGeometry x="90" y="560" width="200" height="140" as="geometry"/>
                </mxCell>
                <mxCell id="fPPLwF_CkYvQ2USY69X8-23" value="&lt;b style=&quot;font-size: 15px&quot;&gt;Nguyễn Văn A&lt;br&gt;&lt;/b&gt;&lt;span style=&quot;white-space: pre&quot;&gt;&#9;&lt;/span&gt;&lt;font style=&quot;font-size: 13px&quot;&gt;Mã Nhân Viên:&amp;nbsp;&lt;br&gt;&lt;span style=&quot;white-space: pre&quot;&gt;&#9;&lt;/span&gt;Hệ số lương:&lt;br&gt;&lt;span style=&quot;white-space: pre&quot;&gt;&#9;&lt;/span&gt;Số giờ làm thêm:&lt;br&gt;&lt;/font&gt;&lt;br&gt;&lt;br&gt;&lt;br&gt;" style="rounded=0;whiteSpace=wrap;html=1;gradientColor=none;align=left;" vertex="1" parent="fPPLwF_CkYvQ2USY69X8-22">
                    <mxGeometry width="200" height="140" as="geometry"/>
                </mxCell>
                <mxCell id="fPPLwF_CkYvQ2USY69X8-24" value="Lương: 4500000" style="rounded=0;whiteSpace=wrap;html=1;gradientColor=none;" vertex="1" parent="fPPLwF_CkYvQ2USY69X8-22">
                    <mxGeometry x="15" y="100" width="170" height="30" as="geometry"/>
                </mxCell>
            </root>
        </mxGraphModel>
    </diagram>
</mxfile>